<?xml version="1.0" encoding="UTF-8" standalone="no"?>
<svg
   version="1.1"
   style="display:block"
   viewBox="0 0 1832.4509 1832.6298"
   width="482.271"
   height="482.271"
   preserveAspectRatio="none"
   id="svg8"
   xmlns="http://www.w3.org/2000/svg"
   xmlns:svg="http://www.w3.org/2000/svg">
  <defs
     id="defs8" />
  <g
     id="g12"
     style="fill:#ffffff"
     transform="translate(-176.49353,350.11734)">
    <path
       fill="#fefefe"
       d="m 219.63755,165.76563 147.37621,-0.327 -14.5735,323.292 300.466,-0.153 14.72274,-322.6074 147.28882,-0.6916 -43.47536,800.812 -146.28571,-0.6118 14.12051,-325.8902 -300.593,-0.237 -14.05156,326.555 -148.13994,-0.618 z"
       id="path2"
       style="display:inline;fill:#ffffff" />
    <path
       d="m 935.37662,313.1957 -95.53989,652.89493 c 15.01295,1.01407 327.84527,2.95629 375.21337,-4.21563 63.2399,-9.68798 120.6708,-44.33592 159.2208,-95.68281 26.7799,-35.66693 32.6283,-87.54504 36.8682,-130.20196 5.24,-52.63989 -9.536,-98.76192 -54.0259,-130.30585 -6,-4.253 -26.7852,-16.87285 -30.5752,-24.09883 -1.4,-10.70798 2.6454,-33.16812 4.6754,-44.0711 14.2199,-76.30084 19.5183,-140.53532 -49.0316,-191.49922 -48.5199,-36.06792 -100.1612,-35.80207 -157.7811,-35.38007 z m 181.02408,128.04219 c 22.2419,-0.0753 46.7599,1.44697 59.3099,7.7707 24.7599,12.47397 6.9997,93.05911 -2.3303,112.99805 -5.8699,12.56496 -26.9499,19.66343 -39.7699,22.80742 -26.0699,6.40298 -67.1274,15.26603 -92.7273,15.48203 0.05,-17.64094 17.2334,-141.4371 23.2134,-155.41406 7.31,-1.73699 10.3833,-1.97791 17.8033,-2.4789 8.6287,-0.50063 21.1558,-1.12005 34.5009,-1.16524 z m 109.3804,258.83789 c 19.6417,0.44073 33.778,13.48303 33.1874,34.48203 -0.86,30.59291 -3.8564,90.88946 -41.9963,98.94844 -19.77,4.17499 -50.759,2.43973 -71.629,2.35273 -32.9899,-0.181 -65.986,0.0501 -98.9759,0.70508 -12.0399,0.207 -28.8653,-0.20017 -40.6753,-1.55117 0.38,-13.13096 8.3164,-77.77076 14.2264,-85.95273 3.19,-4.42399 10.6906,-6.78057 15.7105,-8.40157 13.61,-4.39698 28.0118,-7.02262 41.9518,-10.24961 26.2999,-6.30198 52.7183,-12.12042 79.2282,-17.4414 21.597,-4.62258 43.0295,-10.09835 64.9722,-12.81016 1.3556,-0.084 2.6905,-0.11102 4,-0.0816 z"
       style="fill:#ffffff"
       id="path12" />
    <path
       fill="#fefefe"
       d="m 1665.9352,300.19774 c 91.24,-0.26 218.79,32.49 285.17,98.855 31.2,31.579 50.89,72.724 55.91,116.832 2,17.047 1.91,37.07 1.93,54.278 l -169.04,-31.157 c -0.31,-18.9 -1.44,-36.211 -14.68,-51.357 -20.85,-23.835 -61.86,-36.879 -92.5,-39.08 -21.17,-1.131 -48.55,-3.059 -65.81,11.57 -15.83,13.515 -16.59,36.192 -18.15,55.655 -3.38,42.199 -5.78,84.273 -8.92,126.562 -2.59,34.985 -5.54,73.727 -4.01,108.554 0.6,13.793 13.67,32.216 24.59,39.844 24.35,18.469 56.13,27.363 86.33,29.26 19.22,1.208 45.27,1.42 60.43,-12.116 20.74,-18.745 18.51,-59.462 19.72,-85.536 -4.13,-0.366 -7.55,-1.115 -11.62,-1.881 -27.55,-5.191 -55.13,-11.754 -82.91,-15.483 l 8.36,-138.727 c 8.7,-3.541 240.11,45.571 265.72,49.537 l -10.23,147.648 c -4.09,51.818 -5.73,105.387 -40.35,147.98 -26.89,33.096 -71.21,51.919 -113.72,54.712 -102.37,6.357 -219.83,-18.305 -301.94,-81.905 -100.53,-77.874 -72.89,-203.958 -66.78,-313.808 2.7,-48.501 4.03,-102.499 14.59,-149.875 22.3491,-100.22505 110.4175,-120.40685 177.91,-120.362 z"
       id="path8"
       style="fill:#ffffff" />
  </g>
</svg>
